<svg xmlns="http://www.w3.org/2000/svg" fill="none" viewBox="0 0 25 25"><path fill="#7E92A2" d="M7.5 15.19c-.41 0-.75-.34-.75-.75v-3.21c0-.41.34-.75.75-.75s.75.34.75.75v3.21c0 .42-.34.75-.75.75ZM12.5 16.93c-.41 0-.75-.34-.75-.75V9.5c0-.41.34-.75.75-.75s.75.34.75.75v6.68c0 .41-.34.75-.75.75ZM17.5 15.19c-.41 0-.75-.34-.75-.75v-3.21c0-.41.34-.75.75-.75s.75.34.75.75v3.21c0 .42-.34.75-.75.75Z"/><path fill="#7E92A2" d="M15.5 23.25h-6c-5.43 0-7.75-2.32-7.75-7.75v-6c0-5.43 2.32-7.75 7.75-7.75h6c5.43 0 7.75 2.32 7.75 7.75v6c0 5.43-2.32 7.75-7.75 7.75Zm-6-20c-4.61 0-6.25 1.64-6.25 6.25v6c0 4.61 1.64 6.25 6.25 6.25h6c4.61 0 6.25-1.64 6.25-6.25v-6c0-4.61-1.64-6.25-6.25-6.25h-6Z"/></svg>