<svg xmlns="http://www.w3.org/2000/svg" fill="none" viewBox="0 0 32 32"><path fill="#2DC8A8" d="M12 2.667A6.34 6.34 0 0 0 5.667 9c0 3.427 2.68 6.2 6.173 6.32.107-.013.213-.013.293 0h.094A6.318 6.318 0 0 0 18.333 9 6.34 6.34 0 0 0 12 2.667ZM18.773 18.867c-3.72-2.48-9.786-2.48-13.533 0C3.547 20 2.613 21.533 2.613 23.173c0 1.64.934 3.16 2.614 4.28 1.866 1.254 4.32 1.88 6.773 1.88 2.453 0 4.907-.626 6.773-1.88 1.68-1.133 2.614-2.653 2.614-4.306-.014-1.64-.934-3.16-2.614-4.28ZM26.653 9.787c.214 2.586-1.626 4.853-4.173 5.16h-.067c-.08 0-.16 0-.226.026-1.294.067-2.48-.346-3.374-1.106 1.374-1.227 2.16-3.067 2-5.067a6.189 6.189 0 0 0-1.026-2.907 4.79 4.79 0 0 1 6.867 3.893Z"/><path fill="#2DC8A8" d="M29.32 22.12c-.107 1.293-.933 2.413-2.32 3.173-1.333.734-3.013 1.08-4.68 1.04.96-.866 1.52-1.946 1.627-3.093.133-1.653-.654-3.24-2.227-4.507-.893-.706-1.933-1.266-3.067-1.68 2.947-.853 6.654-.28 8.934 1.56 1.226.987 1.853 2.227 1.733 3.507Z"/></svg>