<svg xmlns="http://www.w3.org/2000/svg" fill="none" viewBox="0 0 20 20"><path fill="#7E92A2" d="M10 1.667c-4.592 0-8.333 3.741-8.333 8.333 0 4.592 3.741 8.333 8.333 8.333 4.592 0 8.333-3.741 8.333-8.333 0-4.592-3.741-8.333-8.333-8.333Zm2.8 10.25a.629.629 0 0 1 0 .883.618.618 0 0 1-.442.183.618.618 0 0 1-.441-.183L10 10.883 8.083 12.8a.618.618 0 0 1-.441.183.618.618 0 0 1-.442-.183.629.629 0 0 1 0-.883L9.117 10 7.2 8.083a.629.629 0 0 1 0-.883.629.629 0 0 1 .883 0L10 9.117 11.917 7.2a.629.629 0 0 1 .883 0 .629.629 0 0 1 0 .883L10.883 10l1.917 1.917Z"/></svg>