<svg xmlns="http://www.w3.org/2000/svg" fill="none" viewBox="0 0 19 20"><path fill="#F4900C" d="M19 10.544a9.394 9.394 0 0 0-.581-3.263c-.257 2.997-1.863 4.537-3.54 3.82-1.572-.672-.513-3.291-.434-4.541.131-2.119-.007-4.544-3.874-6.56 1.607 3.06.186 4.96-1.303 5.075C7.615 5.204 6.1 3.661 6.659 1.16 4.85 2.486 4.799 4.719 5.357 6.164c.582 1.507-.024 2.758-1.444 2.897-1.587.156-2.469-1.691-1.655-4.635A9.394 9.394 0 0 0 0 10.544C0 15.767 4.253 20 9.5 20s9.5-4.233 9.5-9.456Z"/><path fill="#FFCC4D" d="M15.309 13.325c.082 1.715-1.431 2.388-2.246 2.063-1.177-.469-.861-1.274-1.164-2.943-.303-1.668-1.467-2.827-3.19-3.337 1.257 3.522-.697 4.82-1.721 5.052-1.046.237-2.097 0-2.218-2.228a6.64 6.64 0 0 0-1.976 4.73c0 .206.013.407.031.607A9.488 9.488 0 0 0 9.5 20a9.488 9.488 0 0 0 6.675-2.731 6.615 6.615 0 0 0-.867-3.944Z"/></svg>