<svg fill="none" xmlns="http://www.w3.org/2000/svg" viewBox="0 0 20 20"><path d="M17.917 9.083V3.417c0-1.25-.534-1.75-1.859-1.75h-3.366c-1.325 0-1.859.5-1.859 1.75v5.666c0 1.25.534 1.75 1.859 1.75h3.366c1.325 0 1.859-.5 1.859-1.75ZM9.167 10.917v5.666c0 1.25-.534 1.75-1.859 1.75H3.942c-1.325 0-1.859-.5-1.859-1.75v-5.666c0-1.25.534-1.75 1.859-1.75h3.366c1.325 0 1.859.5 1.859 1.75ZM17.917 16.583V14.25c0-1.25-.534-1.75-1.859-1.75h-3.366c-1.325 0-1.859.5-1.859 1.75v2.333c0 1.25.534 1.75 1.859 1.75h3.366c1.325 0 1.859-.5 1.859-1.75ZM9.167 5.75V3.417c0-1.25-.534-1.75-1.859-1.75H3.942c-1.325 0-1.859.5-1.859 1.75V5.75c0 1.25.534 1.75 1.859 1.75h3.366c1.325 0 1.859-.5 1.859-1.75Z" fill="#fff"/></svg>