<svg xmlns="http://www.w3.org/2000/svg" fill="none" viewBox="0 0 32 32"><path fill="#FE8084" d="M28.12 9.307c-1.133-1.254-3.027-1.88-5.773-1.88h-.32v-.054c0-2.24 0-5.013-5.014-5.013h-2.026c-5.014 0-5.014 2.787-5.014 5.013v.067h-.32c-2.76 0-4.64.627-5.773 1.88-1.32 1.467-1.28 3.44-1.147 4.787l.014.093.103 1.084c.019.2.127.38.294.49.32.21.855.554 1.176.733.187.12.387.226.587.333a22.89 22.89 0 0 0 7.333 2.507c.12 1.253.667 2.72 3.587 2.72s3.493-1.454 3.586-2.747a22.44 22.44 0 0 0 7.72-2.773c.08-.04.134-.08.2-.12a17.509 17.509 0 0 0 1.578-1.029.658.658 0 0 0 .268-.461l.021-.19.067-.627c.013-.08.013-.147.026-.24.107-1.347.08-3.187-1.173-4.573ZM17.453 18.44c0 1.413 0 1.627-1.64 1.627s-1.64-.254-1.64-1.614v-1.68h3.28v1.667ZM11.88 7.373c0-2.266 0-3.106 3.107-3.106h2.026c3.107 0 3.107.853 3.107 3.106v.067h-8.24v-.067Z"/><path fill="#FE8084" d="M27.831 18.312a.679.679 0 0 1 .968.67l-.479 5.271c-.28 2.667-1.373 5.387-7.24 5.387H10.92c-5.867 0-6.96-2.72-7.24-5.373l-.454-4.997a.678.678 0 0 1 .954-.675c1.519.687 4.323 1.907 6.055 2.36a.76.76 0 0 1 .493.42c.809 1.73 2.564 2.652 5.099 2.652 2.51 0 4.287-.957 5.098-2.692a.763.763 0 0 1 .493-.42c1.84-.484 4.824-1.847 6.413-2.603Z"/></svg>