<svg fill="none" xmlns="http://www.w3.org/2000/svg" viewBox="0 0 20 20"><path d="M13.333 18.958H6.667c-3.85 0-4.567-1.791-4.75-3.533L1.292 8.75c-.092-.875-.117-2.167.75-3.133.75-.834 1.991-1.234 3.791-1.234h8.334c1.808 0 3.05.409 3.791 1.234.867.966.842 2.258.75 3.141l-.625 6.659c-.183 1.75-.9 3.541-4.75 3.541Zm-7.5-13.333c-1.408 0-2.375.275-2.866.825-.409.45-.542 1.142-.434 2.175l.625 6.675c.142 1.317.5 2.408 3.509 2.408h6.666c3 0 3.367-1.091 3.509-2.416l.625-6.659c.108-1.041-.025-1.733-.434-2.183-.491-.55-1.458-.825-2.866-.825H5.833Z" fill="#7E92A2"/><path d="M13.333 5.625A.63.63 0 0 1 12.708 5v-.667c0-1.483 0-2.041-2.041-2.041H9.333c-2.041 0-2.041.558-2.041 2.041V5a.63.63 0 0 1-.625.625A.63.63 0 0 1 6.042 5v-.667c0-1.466 0-3.291 3.291-3.291h1.334c3.291 0 3.291 1.825 3.291 3.291V5a.63.63 0 0 1-.625.625ZM10 13.958c-2.292 0-2.292-1.416-2.292-2.266v-.859c0-1.175.284-1.458 1.459-1.458h1.666c1.175 0 1.459.283 1.459 1.458v.834c0 .866 0 2.291-2.292 2.291Zm-1.042-3.333v1.067c0 .858 0 1.016 1.042 1.016s1.042-.133 1.042-1.025v-1.058H8.958Z" fill="#7E92A2"/><path d="M11.667 12.308a.621.621 0 0 1-.617-.55.628.628 0 0 1 .542-.7 13.146 13.146 0 0 0 6.083-2.4.621.621 0 0 1 .875.142c.2.275.142.667-.142.875a14.47 14.47 0 0 1-6.666 2.633h-.075ZM8.333 12.317h-.075a14.294 14.294 0 0 1-6.433-2.409.627.627 0 0 1-.167-.866.627.627 0 0 1 .867-.167 13.128 13.128 0 0 0 5.867 2.2c.341.042.591.35.55.692a.602.602 0 0 1-.609.55Z" fill="#7E92A2"/></svg>