<svg xmlns="http://www.w3.org/2000/svg" fill="none" viewBox="0 0 32 36"><path fill="#FFC357" d="M32 17.794c0-.506-.12-.981-.32-1.413-1.341-4.356-7.616-4.037-16.54-4.25-1.493-.035-.64-1.81-.116-5.706C15.365 3.891 13.745 0 11.018 0 6.52 0 10.846 3.572 6.87 12.405 4.747 17.125 0 14.481 0 19.222v10.79c0 1.846.18 3.62 2.756 3.912C5.254 34.207 4.692 36 8.296 36h18.033c1.837 0 3.331-1.506 3.331-3.356a3.34 3.34 0 0 0-.697-2.032 3.35 3.35 0 0 0 1.719-2.919c0-.765-.266-1.463-.696-2.028a3.348 3.348 0 0 0 1.724-2.92c0-.916-.368-1.745-.96-2.353A3.342 3.342 0 0 0 32 17.794Z"/><path fill="#000" d="M20.082 21.008h8.604c1.17 0 2.268-.626 2.866-1.633a.876.876 0 0 0-1.506-.892 1.588 1.588 0 0 1-1.361.775h-8.81c-.873 0-1.583-.71-1.583-1.583s.71-1.583 1.583-1.583h5.887a.875.875 0 0 0 0-1.75h-5.888a3.337 3.337 0 0 0-3.333 3.333c0 1.025.475 1.932 1.205 2.544a3.32 3.32 0 0 0-.998 2.373c0 1.028.478 1.938 1.212 2.549a3.318 3.318 0 0 0 .419 5.08 3.305 3.305 0 0 0-.852 2.204 3.337 3.337 0 0 0 3.333 3.333h5.484a3.35 3.35 0 0 0 2.867-1.632.875.875 0 0 0-1.504-.894 1.594 1.594 0 0 1-1.363.776H20.86c-.873 0-1.583-.71-1.583-1.583s.71-1.583 1.583-1.583h6.506a3.35 3.35 0 0 0 2.867-1.633.875.875 0 1 0-1.504-.894 1.572 1.572 0 0 1-1.363.777h-7.063a1.585 1.585 0 0 1 0-3.167h8.091a3.35 3.35 0 0 0 2.867-1.632.875.875 0 0 0-1.504-.894 1.573 1.573 0 0 1-1.363.776h-8.312a1.585 1.585 0 0 1 0-3.167Z" opacity=".1"/></svg>