<svg xmlns="http://www.w3.org/2000/svg" fill="none" viewBox="0 0 20 20"><path fill="#DD2E44" d="M6.459 3.9a.798.798 0 0 0-.15.223l-.004-.005-6.23 14.267.006.006c-.116.228.077.69.473 1.094.397.402.852.599 1.076.481l.005.006 14.037-6.334-.005-.005a.767.767 0 0 0 .22-.152c.867-.882-.54-3.742-3.142-6.387C10.14 4.448 7.327 3.018 6.459 3.9Z"/><path fill="#EA596E" d="M7.222 6.448.232 18.026l-.158.359.007.006c-.116.228.077.69.473 1.094.13.13.263.23.394.314L9.444 9.271 7.222 6.448Z"/><path fill="#A0041E" d="M12.784 7.05c2.594 2.638 4.035 5.45 3.216 6.28-.818.833-3.585-.63-6.18-3.268-2.596-2.638-4.036-5.45-3.217-6.282.818-.832 3.585.632 6.181 3.27Z"/><path fill="#AA8DD8" d="M10.328 7.356a.544.544 0 0 1-.408.122c-.482-.054-.888-.224-1.172-.493a1.265 1.265 0 0 1-.408-1.052c.07-.673.735-1.29 1.868-1.166.44.048.637-.096.644-.165.008-.068-.154-.252-.595-.3-.482-.054-.887-.224-1.172-.493-.3-.286-.45-.668-.408-1.052.072-.673.736-1.29 1.868-1.166.32.035.49-.032.562-.075.057-.036.08-.07.082-.09.007-.068-.153-.252-.594-.3a.562.562 0 0 1-.493-.622.556.556 0 0 1 .612-.5c1.132.123 1.652.87 1.58 1.544-.072.674-.736 1.29-1.869 1.167-.32-.036-.489.032-.56.075-.058.035-.081.07-.084.09-.007.068.154.25.595.3 1.132.124 1.652.87 1.58 1.544-.071.673-.735 1.29-1.867 1.166-.321-.035-.49.033-.563.075-.057.037-.08.07-.082.09-.007.068.154.251.595.3a.562.562 0 0 1 .492.622.56.56 0 0 1-.204.38Z"/><path fill="#77B255" d="M17.033 12.578c1.096-.314 1.852.182 2.032.835.18.651-.21 1.476-1.305 1.79-.428.121-.556.33-.539.395.019.067.236.176.663.054 1.095-.313 1.851.183 2.031.835.181.652-.21 1.476-1.306 1.79-.427.122-.556.33-.537.396.018.066.235.176.662.054a.555.555 0 0 1 .685.39c.083.3-.09.612-.385.697-1.095.313-1.851-.183-2.032-.835-.18-.652.21-1.476 1.307-1.79.428-.122.556-.33.537-.396-.018-.066-.234-.176-.661-.054-1.097.314-1.852-.182-2.033-.835-.18-.652.21-1.476 1.306-1.79.427-.122.555-.33.538-.396-.02-.067-.235-.176-.663-.054a.554.554 0 0 1-.685-.39c-.082-.3.09-.611.385-.696Z"/><path fill="#AA8DD8" d="M12.778 11.055a.553.553 0 0 1-.434-.212.572.572 0 0 1 .086-.793c.121-.1 3.01-2.405 7.093-1.812.304.044.515.33.471.639a.554.554 0 0 1-.628.479c-3.608-.521-6.215 1.555-6.24 1.575a.55.55 0 0 1-.348.124Z"/><path fill="#77B255" d="M3.197 8.706a.566.566 0 0 1-.532-.727c.629-2.13 1.2-5.53.498-6.416-.078-.1-.196-.2-.468-.178-.52.04-.471 1.158-.47 1.169a.561.561 0 0 1-.513.605.559.559 0 0 1-.595-.521c-.058-.779.18-2.278 1.495-2.38C3.2.214 3.686.422 4.03.856c1.317 1.667-.02 6.497-.301 7.45a.557.557 0 0 1-.532.401Z"/><path fill="#5C913B" d="M14.166 5.883A.84.84 0 0 0 15 5.036a.84.84 0 0 0-.833-.847.84.84 0 0 0-.833.847.84.84 0 0 0 .833.847Z"/><path fill="#9266CC" d="M1.111 10.965a1.12 1.12 0 0 0 1.111-1.13 1.12 1.12 0 0 0-1.11-1.129A1.12 1.12 0 0 0 0 9.836c0 .623.497 1.129 1.111 1.129Z"/><path fill="#5C913B" d="M18.055 11.53a.84.84 0 0 0 .833-.848.84.84 0 0 0-.833-.846.84.84 0 0 0-.833.846.84.84 0 0 0 .833.848ZM13.055 18.305a.84.84 0 0 0 .834-.847.84.84 0 0 0-.834-.847.84.84 0 0 0-.833.847.84.84 0 0 0 .833.847Z"/><path fill="#FFCC4D" d="M15.555 3.06a1.12 1.12 0 0 0 1.111-1.13 1.12 1.12 0 0 0-1.11-1.129 1.12 1.12 0 0 0-1.112 1.13c0 .623.497 1.129 1.111 1.129ZM18.055 5.318a.84.84 0 0 0 .833-.847.84.84 0 0 0-.833-.847.84.84 0 0 0-.833.847.84.84 0 0 0 .833.847ZM16.388 7.577a.84.84 0 0 0 .834-.847.84.84 0 0 0-.834-.847.84.84 0 0 0-.833.847.84.84 0 0 0 .833.847ZM4.167 13.788A.84.84 0 0 0 5 12.941a.84.84 0 0 0-.833-.847.84.84 0 0 0-.834.847.84.84 0 0 0 .834.847Z"/></svg>