<svg fill="none" xmlns="http://www.w3.org/2000/svg" viewBox="0 0 20 20"><path d="M16.666 16.05H9.108a.686.686 0 0 1-.683-.683c0-.375.308-.684.683-.684h7.558c.375 0 .684.309.684.684a.681.681 0 0 1-.684.683ZM16.666 10.808H9.108a.686.686 0 0 1-.683-.683c0-.375.308-.683.683-.683h7.558c.375 0 .684.308.684.683a.686.686 0 0 1-.684.683ZM16.666 5.558H9.108a.686.686 0 0 1-.683-.683c0-.375.308-.683.683-.683h7.558c.375 0 .684.308.684.683a.686.686 0 0 1-.684.683ZM4.092 6.692a.688.688 0 0 1-.484-.2l-.758-.759a.684.684 0 0 1 .967-.966l.275.275 1.783-1.784a.684.684 0 0 1 .967.967L4.575 6.492c-.133.125-.3.2-.483.2ZM4.092 11.942a.681.681 0 0 1-.484-.2l-.758-.759a.684.684 0 0 1 .967-.966l.275.275 1.783-1.784a.684.684 0 0 1 .967.967l-2.267 2.267a.681.681 0 0 1-.483.2ZM4.092 16.942a.681.681 0 0 1-.484-.2l-.758-.759a.684.684 0 0 1 .967-.966l.275.275 1.783-1.784a.684.684 0 0 1 .967.967l-2.267 2.267a.681.681 0 0 1-.483.2Z" fill="#7E92A2"/></svg>