<svg xmlns="http://www.w3.org/2000/svg" fill="none" viewBox="0 0 16 16"><path fill="#FE8084" d="m13.007 3.9-3.96-2.287a2.109 2.109 0 0 0-2.1 0L2.993 3.9a2.1 2.1 0 0 0-1.046 1.82v4.56c0 .747.4 1.44 1.046 1.82l3.96 2.287a2.108 2.108 0 0 0 2.1 0l3.96-2.287a2.1 2.1 0 0 0 1.047-1.82V5.72a2.128 2.128 0 0 0-1.053-1.82ZM7.5 5.167c0-.274.227-.5.5-.5s.5.226.5.5v3.5c0 .273-.227.5-.5.5a.504.504 0 0 1-.5-.5v-3.5Zm1.113 5.92a.769.769 0 0 1-.14.22.66.66 0 0 1-.726.14.688.688 0 0 1-.22-.14.972.972 0 0 1-.147-.22.657.657 0 0 1-.047-.254c0-.173.067-.346.194-.473a.688.688 0 0 1 .22-.14.666.666 0 0 1 .726.14c.06.067.107.133.14.22.034.08.054.167.054.253 0 .087-.02.174-.054.254Z"/></svg>